<?xml version="1.0" encoding="UTF-8"?>
<svg xmlns="http://www.w3.org/2000/svg" role="img" aria-labelledby="title desc" width="1536" height="163" viewBox="0 0 1536 163">
<title id="title">FUTURO — modelo conceitual, odontograma não implementado no runtime atual</title><desc id="desc">Diagrama Mermaid convertido a SVG pelo verificador local do projeto.</desc>
<defs><marker id="arrow" markerWidth="8" markerHeight="8" refX="7" refY="4" orient="auto"><path d="M0,0 L8,4 L0,8 z" fill="#6c8580"/></marker></defs>
<style>text{font-family:Arial,sans-serif;font-size:12px;fill:#183936}.node rect,.node polygon{fill:#f6faf9;stroke:#8aa9a3;stroke-width:1.5}.node.decision polygon{fill:#eef5f3}.edge-label{font-size:10px;fill:#425b56;paint-order:stroke;stroke:#fff;stroke-width:4px;stroke-linejoin:round}</style>
<text x="45" y="25" font-size="16" font-weight="700">FUTURO — modelo conceitual, odontograma não implementado no runtime atual</text>
<g class="edge"><path d="M 241 81.5 L 295 81.5" fill="none" stroke="#6c8580" stroke-width="1.6" marker-end="url(#arrow)"/></g>
<g class="edge"><path d="M 491 81.5 L 545 81.5" fill="none" stroke="#6c8580" stroke-width="1.6" marker-end="url(#arrow)"/></g>
<g class="edge"><path d="M 741 81.5 L 795 81.5" fill="none" stroke="#6c8580" stroke-width="1.6" marker-end="url(#arrow)"/></g>
<g class="edge"><path d="M 991 81.5 L 1045 81.5" fill="none" stroke="#6c8580" stroke-width="1.6" marker-end="url(#arrow)"/></g>
<g class="edge"><path d="M 1241 81.5 L 1295 81.5" fill="none" stroke="#6c8580" stroke-width="1.6" marker-end="url(#arrow)"/></g>
<g class="node box"><rect x="45" y="59" width="196" height="45" rx="12"/><text x="143" y="85.5" text-anchor="middle">Tooth/Region</text></g>
<g class="node box"><rect x="295" y="59" width="196" height="45" rx="12"/><text x="393" y="85.5" text-anchor="middle">Event 1</text></g>
<g class="node box"><rect x="545" y="59" width="196" height="45" rx="12"/><text x="643" y="85.5" text-anchor="middle">Event 2</text></g>
<g class="node box"><rect x="795" y="59" width="196" height="45" rx="12"/><text x="893" y="85.5" text-anchor="middle">Event 3</text></g>
<g class="node box"><rect x="1045" y="59" width="196" height="45" rx="12"/><text x="1143" y="85.5" text-anchor="middle">Derived Current State</text></g>
<g class="node box"><rect x="1295" y="59" width="196" height="45" rx="12"/><text x="1393" y="85.5" text-anchor="middle">Historical Timeline</text></g>
</svg>
