<?xml version="1.0" encoding="UTF-8" standalone="no"?>
<!DOCTYPE svg PUBLIC "-//W3C//DTD SVG 1.1//EN"
 "http://www.w3.org/Graphics/SVG/1.1/DTD/svg11.dtd">
<!-- Generated by graphviz version 2.42.4 (0)
 -->
<!-- Title: G Pages: 1 -->
<svg width="1311pt" height="109pt"
 viewBox="0.00 0.00 1311.20 109.20" xmlns="http://www.w3.org/2000/svg" xmlns:xlink="http://www.w3.org/1999/xlink">
<g id="graph0" class="graph" transform="scale(1 1) rotate(0) translate(21.6 87.6)">
<title>G</title>
<polygon fill="white" stroke="transparent" points="-21.6,21.6 -21.6,-87.6 1289.6,-87.6 1289.6,21.6 -21.6,21.6"/>
<text text-anchor="middle" x="634" y="-46" font-family="Arial" font-size="20.00">Onboarding de tenant</text>
<!-- Platform Owner -->
<g id="node1" class="node">
<title>Platform Owner</title>
<path fill="#f8fafc" stroke="#94a3b8" d="M88,-36C88,-36 12,-36 12,-36 6,-36 0,-30 0,-24 0,-24 0,-12 0,-12 0,-6 6,0 12,0 12,0 88,0 88,0 94,0 100,-6 100,-12 100,-12 100,-24 100,-24 100,-30 94,-36 88,-36"/>
<text text-anchor="middle" x="50" y="-15.2" font-family="Arial" font-size="11.00">Platform Owner</text>
</g>
<!-- Create Tenant -->
<g id="node2" class="node">
<title>Create Tenant</title>
<path fill="#f8fafc" stroke="#94a3b8" d="M231,-36C231,-36 162,-36 162,-36 156,-36 150,-30 150,-24 150,-24 150,-12 150,-12 150,-6 156,0 162,0 162,0 231,0 231,0 237,0 243,-6 243,-12 243,-12 243,-24 243,-24 243,-30 237,-36 231,-36"/>
<text text-anchor="middle" x="196.5" y="-15.2" font-family="Arial" font-size="11.00">Create Tenant</text>
</g>
<!-- Platform Owner&#45;&gt;Create Tenant -->
<g id="edge1" class="edge">
<title>Platform Owner&#45;&gt;Create Tenant</title>
<path fill="none" stroke="#64748b" d="M100.32,-18C113.97,-18 128.83,-18 142.67,-18"/>
<polygon fill="#64748b" stroke="#64748b" points="142.8,-20.45 149.8,-18 142.8,-15.55 142.8,-20.45"/>
</g>
<!-- Slug -->
<g id="node3" class="node">
<title>Slug</title>
<path fill="#f8fafc" stroke="#94a3b8" d="M335,-36C335,-36 305,-36 305,-36 299,-36 293,-30 293,-24 293,-24 293,-12 293,-12 293,-6 299,0 305,0 305,0 335,0 335,0 341,0 347,-6 347,-12 347,-12 347,-24 347,-24 347,-30 341,-36 335,-36"/>
<text text-anchor="middle" x="320" y="-15.2" font-family="Arial" font-size="11.00">Slug</text>
</g>
<!-- Create Tenant&#45;&gt;Slug -->
<g id="edge2" class="edge">
<title>Create Tenant&#45;&gt;Slug</title>
<path fill="none" stroke="#64748b" d="M243.09,-18C257.29,-18 272.68,-18 285.86,-18"/>
<polygon fill="#64748b" stroke="#64748b" points="285.93,-20.45 292.93,-18 285.93,-15.55 285.93,-20.45"/>
</g>
<!-- Owner Membership -->
<g id="node4" class="node">
<title>Owner Membership</title>
<path fill="#f8fafc" stroke="#94a3b8" d="M504,-36C504,-36 409,-36 409,-36 403,-36 397,-30 397,-24 397,-24 397,-12 397,-12 397,-6 403,0 409,0 409,0 504,0 504,0 510,0 516,-6 516,-12 516,-12 516,-24 516,-24 516,-30 510,-36 504,-36"/>
<text text-anchor="middle" x="456.5" y="-15.2" font-family="Arial" font-size="11.00">Owner Membership</text>
</g>
<!-- Slug&#45;&gt;Owner Membership -->
<g id="edge3" class="edge">
<title>Slug&#45;&gt;Owner Membership</title>
<path fill="none" stroke="#64748b" d="M347.25,-18C359.41,-18 374.45,-18 389.42,-18"/>
<polygon fill="#64748b" stroke="#64748b" points="389.74,-20.45 396.74,-18 389.74,-15.55 389.74,-20.45"/>
</g>
<!-- Branding -->
<g id="node5" class="node">
<title>Branding</title>
<path fill="#f8fafc" stroke="#94a3b8" d="M622,-36C622,-36 578,-36 578,-36 572,-36 566,-30 566,-24 566,-24 566,-12 566,-12 566,-6 572,0 578,0 578,0 622,0 622,0 628,0 634,-6 634,-12 634,-12 634,-24 634,-24 634,-30 628,-36 622,-36"/>
<text text-anchor="middle" x="600" y="-15.2" font-family="Arial" font-size="11.00">Branding</text>
</g>
<!-- Owner Membership&#45;&gt;Branding -->
<g id="edge4" class="edge">
<title>Owner Membership&#45;&gt;Branding</title>
<path fill="none" stroke="#64748b" d="M516.28,-18C530.5,-18 545.39,-18 558.55,-18"/>
<polygon fill="#64748b" stroke="#64748b" points="558.67,-20.45 565.67,-18 558.67,-15.55 558.67,-20.45"/>
</g>
<!-- Professionals -->
<g id="node6" class="node">
<title>Professionals</title>
<path fill="#f8fafc" stroke="#94a3b8" d="M761,-36C761,-36 696,-36 696,-36 690,-36 684,-30 684,-24 684,-24 684,-12 684,-12 684,-6 690,0 696,0 696,0 761,0 761,0 767,0 773,-6 773,-12 773,-12 773,-24 773,-24 773,-30 767,-36 761,-36"/>
<text text-anchor="middle" x="728.5" y="-15.2" font-family="Arial" font-size="11.00">Professionals</text>
</g>
<!-- Branding&#45;&gt;Professionals -->
<g id="edge5" class="edge">
<title>Branding&#45;&gt;Professionals</title>
<path fill="none" stroke="#64748b" d="M634.24,-18C647.08,-18 662.07,-18 676.23,-18"/>
<polygon fill="#64748b" stroke="#64748b" points="676.54,-20.45 683.54,-18 676.54,-15.55 676.54,-20.45"/>
</g>
<!-- Procedures -->
<g id="node7" class="node">
<title>Procedures</title>
<path fill="#f8fafc" stroke="#94a3b8" d="M891,-36C891,-36 835,-36 835,-36 829,-36 823,-30 823,-24 823,-24 823,-12 823,-12 823,-6 829,0 835,0 835,0 891,0 891,0 897,0 903,-6 903,-12 903,-12 903,-24 903,-24 903,-30 897,-36 891,-36"/>
<text text-anchor="middle" x="863" y="-15.2" font-family="Arial" font-size="11.00">Procedures</text>
</g>
<!-- Professionals&#45;&gt;Procedures -->
<g id="edge6" class="edge">
<title>Professionals&#45;&gt;Procedures</title>
<path fill="none" stroke="#64748b" d="M773.25,-18C786.86,-18 801.91,-18 815.68,-18"/>
<polygon fill="#64748b" stroke="#64748b" points="815.76,-20.45 822.76,-18 815.76,-15.55 815.76,-20.45"/>
</g>
<!-- Hours -->
<g id="node8" class="node">
<title>Hours</title>
<path fill="#f8fafc" stroke="#94a3b8" d="M995,-36C995,-36 965,-36 965,-36 959,-36 953,-30 953,-24 953,-24 953,-12 953,-12 953,-6 959,0 965,0 965,0 995,0 995,0 1001,0 1007,-6 1007,-12 1007,-12 1007,-24 1007,-24 1007,-30 1001,-36 995,-36"/>
<text text-anchor="middle" x="980" y="-15.2" font-family="Arial" font-size="11.00">Hours</text>
</g>
<!-- Procedures&#45;&gt;Hours -->
<g id="edge7" class="edge">
<title>Procedures&#45;&gt;Hours</title>
<path fill="none" stroke="#64748b" d="M903.25,-18C917.09,-18 932.5,-18 945.78,-18"/>
<polygon fill="#64748b" stroke="#64748b" points="945.92,-20.45 952.92,-18 945.92,-15.55 945.92,-20.45"/>
</g>
<!-- Features/Limits -->
<g id="node9" class="node">
<title>Features/Limits</title>
<path fill="#f8fafc" stroke="#94a3b8" d="M1143,-36C1143,-36 1069,-36 1069,-36 1063,-36 1057,-30 1057,-24 1057,-24 1057,-12 1057,-12 1057,-6 1063,0 1069,0 1069,0 1143,0 1143,0 1149,0 1155,-6 1155,-12 1155,-12 1155,-24 1155,-24 1155,-30 1149,-36 1143,-36"/>
<text text-anchor="middle" x="1106" y="-15.2" font-family="Arial" font-size="11.00">Features/Limits</text>
</g>
<!-- Hours&#45;&gt;Features/Limits -->
<g id="edge8" class="edge">
<title>Hours&#45;&gt;Features/Limits</title>
<path fill="none" stroke="#64748b" d="M1007.3,-18C1019.64,-18 1034.84,-18 1049.55,-18"/>
<polygon fill="#64748b" stroke="#64748b" points="1049.71,-20.45 1056.71,-18 1049.71,-15.55 1049.71,-20.45"/>
</g>
<!-- Activate -->
<g id="node10" class="node">
<title>Activate</title>
<path fill="#f8fafc" stroke="#94a3b8" d="M1256,-36C1256,-36 1217,-36 1217,-36 1211,-36 1205,-30 1205,-24 1205,-24 1205,-12 1205,-12 1205,-6 1211,0 1217,0 1217,0 1256,0 1256,0 1262,0 1268,-6 1268,-12 1268,-12 1268,-24 1268,-24 1268,-30 1262,-36 1256,-36"/>
<text text-anchor="middle" x="1236.5" y="-15.2" font-family="Arial" font-size="11.00">Activate</text>
</g>
<!-- Features/Limits&#45;&gt;Activate -->
<g id="edge9" class="edge">
<title>Features/Limits&#45;&gt;Activate</title>
<path fill="none" stroke="#64748b" d="M1155.21,-18C1169.27,-18 1184.43,-18 1197.74,-18"/>
<polygon fill="#64748b" stroke="#64748b" points="1197.93,-20.45 1204.93,-18 1197.93,-15.55 1197.93,-20.45"/>
</g>
</g>
</svg>
