<?xml version="1.0" encoding="UTF-8"?>
<svg xmlns="http://www.w3.org/2000/svg" role="img" aria-labelledby="title desc" width="1786" height="253" viewBox="0 0 1786 253">
<title id="title">Suporte clínico da plataforma</title><desc id="desc">Diagrama Mermaid convertido a SVG pelo verificador local do projeto.</desc>
<defs><marker id="arrow" markerWidth="8" markerHeight="8" refX="7" refY="4" orient="auto"><path d="M0,0 L8,4 L0,8 z" fill="#6c8580"/></marker></defs>
<style>text{font-family:Arial,sans-serif;font-size:12px;fill:#183936}.node rect,.node polygon{fill:#f6faf9;stroke:#8aa9a3;stroke-width:1.5}.node.decision polygon{fill:#eef5f3}.edge-label{font-size:10px;fill:#425b56;paint-order:stroke;stroke:#fff;stroke-width:4px;stroke-linejoin:round}</style>
<text x="45" y="25" font-size="16" font-weight="700">Suporte clínico da plataforma</text>
<g class="edge"><path d="M 241 126.5 L 295 126.5" fill="none" stroke="#6c8580" stroke-width="1.6" marker-end="url(#arrow)"/></g>
<g class="edge"><path d="M 491 126.5 L 545 126.5" fill="none" stroke="#6c8580" stroke-width="1.6" marker-end="url(#arrow)"/></g>
<g class="edge"><path d="M 741 126.5 L 795 126.5" fill="none" stroke="#6c8580" stroke-width="1.6" marker-end="url(#arrow)"/></g>
<g class="edge"><path d="M 991 126.5 L 1045 126.5" fill="none" stroke="#6c8580" stroke-width="1.6" marker-end="url(#arrow)"/></g>
<g class="edge"><path d="M 1241 126.5 L 1295 126.5" fill="none" stroke="#6c8580" stroke-width="1.6" marker-end="url(#arrow)"/></g>
<g class="edge"><path d="M 1491 126.5 L 1545 81.5" fill="none" stroke="#6c8580" stroke-width="1.6" marker-end="url(#arrow)"/></g>
<g class="edge"><path d="M 1491 126.5 L 1545 163" fill="none" stroke="#6c8580" stroke-width="1.6" marker-end="url(#arrow)"/></g>
<g class="node box"><rect x="45" y="95.5" width="196" height="62" rx="12"/><text x="143" y="122" text-anchor="middle">Platform Owner</text><text x="143" y="139" text-anchor="middle">autenticado</text></g>
<g class="node box"><rect x="295" y="104" width="196" height="45" rx="12"/><text x="393" y="130.5" text-anchor="middle">R</text></g>
<g class="node box"><rect x="545" y="104" width="196" height="45" rx="12"/><text x="643" y="130.5" text-anchor="middle">J</text></g>
<g class="node box"><rect x="795" y="104" width="196" height="45" rx="12"/><text x="893" y="130.5" text-anchor="middle">E</text></g>
<g class="node box"><rect x="1045" y="104" width="196" height="45" rx="12"/><text x="1143" y="130.5" text-anchor="middle">A</text></g>
<g class="node box"><rect x="1295" y="104" width="196" height="45" rx="12"/><text x="1393" y="130.5" text-anchor="middle">C</text></g>
<g class="node box"><rect x="1545" y="59" width="196" height="45" rx="12"/><text x="1643" y="85.5" text-anchor="middle">Revogar + audit log</text></g>
<g class="node box"><rect x="1545" y="132" width="196" height="62" rx="12"/><text x="1643" y="158.5" text-anchor="middle">Expiração automática</text><text x="1643" y="175.5" text-anchor="middle">encerra acesso</text></g>
</svg>
