<?xml version="1.0" encoding="UTF-8" standalone="no"?>
<!DOCTYPE svg PUBLIC "-//W3C//DTD SVG 1.1//EN"
 "http://www.w3.org/Graphics/SVG/1.1/DTD/svg11.dtd">
<!-- Generated by graphviz version 2.42.4 (0)
 -->
<!-- Title: G Pages: 1 -->
<svg width="1204pt" height="81pt"
 viewBox="0.00 0.00 1204.20 81.20" xmlns="http://www.w3.org/2000/svg" xmlns:xlink="http://www.w3.org/1999/xlink">
<g id="graph0" class="graph" transform="scale(1 1) rotate(0) translate(21.6 59.6)">
<title>G</title>
<!-- Patient -->
<g id="node1" class="node">
<title>Patient</title>
<path fill="#f7fbfa" stroke="#86a9a2" d="M57,-37C57,-37 12,-37 12,-37 6,-37 0,-31 0,-25 0,-25 0,-13 0,-13 0,-7 6,-1 12,-1 12,-1 57,-1 57,-1 63,-1 69,-7 69,-13 69,-13 69,-25 69,-25 69,-31 63,-37 57,-37"/>
<text text-anchor="middle" x="34.5" y="-15.3" font-family="Arial" font-size="14.00">Paciente</text>
</g>
<!-- Intake -->
<g id="node2" class="node">
<title>Intake</title>
<path fill="#f5ead8" stroke="#86a9a2" d="M218,-38C218,-38 118,-38 118,-38 112,-38 106,-32 106,-26 106,-26 106,-12 106,-12 106,-6 112,0 118,0 118,0 218,0 218,0 224,0 230,-6 230,-12 230,-12 230,-26 230,-26 230,-32 224,-38 218,-38"/>
<text text-anchor="middle" x="168" y="-22.8" font-family="Arial" font-size="14.00">IntakeSubmission</text>
<text text-anchor="middle" x="168" y="-7.8" font-family="Arial" font-size="14.00">pending_review</text>
</g>
<!-- Patient&#45;&gt;Intake -->
<g id="edge1" class="edge">
<title>Patient&#45;&gt;Intake</title>
<path fill="none" stroke="#5c7c76" d="M69.02,-19C77.29,-19 86.47,-19 95.79,-19"/>
<polygon fill="#5c7c76" stroke="#5c7c76" points="95.93,-22.5 105.93,-19 95.93,-15.5 95.93,-22.5"/>
</g>
<!-- Reception -->
<g id="node3" class="node">
<title>Reception</title>
<path fill="#f7fbfa" stroke="#86a9a2" d="M332,-38C332,-38 279,-38 279,-38 273,-38 267,-32 267,-26 267,-26 267,-12 267,-12 267,-6 273,0 279,0 279,0 332,0 332,0 338,0 344,-6 344,-12 344,-12 344,-26 344,-26 344,-32 338,-38 332,-38"/>
<text text-anchor="middle" x="305.5" y="-22.8" font-family="Arial" font-size="14.00">Recepção</text>
<text text-anchor="middle" x="305.5" y="-7.8" font-family="Arial" font-size="14.00">revisa</text>
</g>
<!-- Intake&#45;&gt;Reception -->
<g id="edge2" class="edge">
<title>Intake&#45;&gt;Reception</title>
<path fill="none" stroke="#5c7c76" d="M230.01,-19C238.9,-19 247.95,-19 256.53,-19"/>
<polygon fill="#5c7c76" stroke="#5c7c76" points="256.72,-22.5 266.72,-19 256.72,-15.5 256.72,-22.5"/>
</g>
<!-- PatientRecord -->
<g id="node4" class="node">
<title>PatientRecord</title>
<path fill="#dff1ed" stroke="#86a9a2" d="M428,-38C428,-38 393,-38 393,-38 387,-38 381,-32 381,-26 381,-26 381,-12 381,-12 381,-6 387,0 393,0 393,0 428,0 428,0 434,0 440,-6 440,-12 440,-12 440,-26 440,-26 440,-32 434,-38 428,-38"/>
<text text-anchor="middle" x="410.5" y="-22.8" font-family="Arial" font-size="14.00">Patient</text>
<text text-anchor="middle" x="410.5" y="-7.8" font-family="Arial" font-size="14.00">oficial</text>
</g>
<!-- Reception&#45;&gt;PatientRecord -->
<g id="edge3" class="edge">
<title>Reception&#45;&gt;PatientRecord</title>
<path fill="none" stroke="#5c7c76" d="M344.27,-19C352.84,-19 361.96,-19 370.58,-19"/>
<polygon fill="#5c7c76" stroke="#5c7c76" points="370.77,-22.5 380.77,-19 370.77,-15.5 370.77,-22.5"/>
</g>
<!-- Visit -->
<g id="node5" class="node">
<title>Visit</title>
<path fill="#f7fbfa" stroke="#86a9a2" d="M535,-37C535,-37 489,-37 489,-37 483,-37 477,-31 477,-25 477,-25 477,-13 477,-13 477,-7 483,-1 489,-1 489,-1 535,-1 535,-1 541,-1 547,-7 547,-13 547,-13 547,-25 547,-25 547,-31 541,-37 535,-37"/>
<text text-anchor="middle" x="512" y="-15.3" font-family="Arial" font-size="14.00">Consulta</text>
</g>
<!-- PatientRecord&#45;&gt;Visit -->
<g id="edge4" class="edge">
<title>PatientRecord&#45;&gt;Visit</title>
<path fill="none" stroke="#5c7c76" d="M440.01,-19C448.36,-19 457.68,-19 466.76,-19"/>
<polygon fill="#5c7c76" stroke="#5c7c76" points="466.84,-22.5 476.84,-19 466.84,-15.5 466.84,-22.5"/>
</g>
<!-- Recall -->
<g id="node6" class="node">
<title>Recall</title>
<path fill="#f7fbfa" stroke="#86a9a2" d="M663,-38C663,-38 596,-38 596,-38 590,-38 584,-32 584,-26 584,-26 584,-12 584,-12 584,-6 590,0 596,0 596,0 663,0 663,0 669,0 675,-6 675,-12 675,-12 675,-26 675,-26 675,-32 669,-38 663,-38"/>
<text text-anchor="middle" x="629.5" y="-22.8" font-family="Arial" font-size="14.00">Recall</text>
<text text-anchor="middle" x="629.5" y="-7.8" font-family="Arial" font-size="14.00">planned/due</text>
</g>
<!-- Visit&#45;&gt;Recall -->
<g id="edge5" class="edge">
<title>Visit&#45;&gt;Recall</title>
<path fill="none" stroke="#5c7c76" d="M547.03,-19C555.44,-19 564.67,-19 573.79,-19"/>
<polygon fill="#5c7c76" stroke="#5c7c76" points="574,-22.5 584,-19 574,-15.5 574,-22.5"/>
</g>
<!-- Schedule -->
<g id="node7" class="node">
<title>Schedule</title>
<path fill="#f7fbfa" stroke="#86a9a2" d="M827,-37C827,-37 724,-37 724,-37 718,-37 712,-31 712,-25 712,-25 712,-13 712,-13 712,-7 718,-1 724,-1 724,-1 827,-1 827,-1 833,-1 839,-7 839,-13 839,-13 839,-25 839,-25 839,-31 833,-37 827,-37"/>
<text text-anchor="middle" x="775.5" y="-15.3" font-family="Arial" font-size="14.00">Novo appointment</text>
</g>
<!-- Recall&#45;&gt;Schedule -->
<g id="edge6" class="edge">
<title>Recall&#45;&gt;Schedule</title>
<path fill="none" stroke="#5c7c76" d="M675.27,-19C683.67,-19 692.65,-19 701.64,-19"/>
<polygon fill="#5c7c76" stroke="#5c7c76" points="701.78,-22.5 711.78,-19 701.78,-15.5 701.78,-22.5"/>
</g>
<!-- Usage -->
<g id="node8" class="node">
<title>Usage</title>
<path fill="#f7fbfa" stroke="#86a9a2" d="M1149,-38C1149,-38 1050,-38 1050,-38 1044,-38 1038,-32 1038,-26 1038,-26 1038,-12 1038,-12 1038,-6 1044,0 1050,0 1050,0 1149,0 1149,0 1155,0 1161,-6 1161,-12 1161,-12 1161,-26 1161,-26 1161,-32 1155,-38 1149,-38"/>
<text text-anchor="middle" x="1099.5" y="-22.8" font-family="Arial" font-size="14.00">UsageCounter</text>
<text text-anchor="middle" x="1099.5" y="-7.8" font-family="Arial" font-size="14.00">serviços variáveis</text>
</g>
<!-- Schedule&#45;&gt;Usage -->
<g id="edge7" class="edge">
<title>Schedule&#45;&gt;Usage</title>
<path fill="none" stroke="#5c7c76" stroke-dasharray="5,2" d="M839.35,-19C893.45,-19 971.46,-19 1027.75,-19"/>
<polygon fill="#5c7c76" stroke="#5c7c76" points="1027.99,-22.5 1037.99,-19 1027.99,-15.5 1027.99,-22.5"/>
<text text-anchor="middle" x="938.5" y="-22.8" font-family="Times,serif" font-size="14.00"> se integração cobrada</text>
</g>
</g>
</svg>
